name C:\Users\u0101727\Documents\MyRepositories\paper-ad\predictivesimulations_2d/Results/PredSim_2D/IK_c3.mot
datacolumns 11
datarows 17
range 1.27595698 1.42945557
endheader
time	pelvis_tilt	pelvis_tx	pelvis_ty	hip_flexion_l	hip_flexion_r	knee_angle_l	knee_angle_r	ankle_angle_l	ankle_angle_r	lumbar_extension	
          1.27595698	        -15.09644339	          1.69369109	          0.90064844	         33.18966872	         10.36276047	        -37.56290436	         -7.28726981	         15.70378574	         11.31132021	          9.41156770	
          1.28555064	        -15.09573282	          1.70567920	          0.89978852	         34.15822885	          9.58706567	        -36.09018966	         -7.33525676	         15.98922806	         11.32213661	          9.37172843	
          1.29514430	        -15.09609405	          1.71772293	          0.89887075	         35.06566703	          8.82903126	        -34.50085010	         -7.41900585	         16.19378755	         11.32062957	          9.33514492	
          1.30473797	        -15.09791979	          1.72982874	          0.89789403	         35.90848938	          8.08761558	        -32.80256101	         -7.53746289	         16.32658253	         11.31040609	          9.30212639	
          1.31433163	        -15.10153368	          1.74200474	          0.89685722	         36.68211106	          7.36246977	        -31.00681038	         -7.69091047	         16.39639324	         11.29229802	          9.27305788	
          1.32392529	        -15.10700680	          1.75426289	          0.89576296	         37.37981926	          6.65448223	        -29.13983666	         -7.88299508	         16.41136033	         11.26471470	          9.24852856	
          1.33351895	        -15.11437016	          1.76662142	          0.89462361	         37.98864276	          5.96567747	        -27.23586921	         -8.11993595	         16.37876716	         11.22163776	          9.22984214	
          1.34311261	        -15.12364729	          1.77910181	          0.89346085	         38.49278348	          5.29920677	        -25.32711147	         -8.40884995	         16.30500567	         11.15066738	          9.21871942	
          1.35270627	        -15.13452013	          1.79172282	          0.89229721	         38.88283566	          4.65947314	        -23.44138127	         -8.75819725	         16.19546326	         11.03552345	          9.21634561	
          1.36229994	        -15.14619124	          1.80449903	          0.89115067	         39.15869442	          4.05173404	        -21.60055852	         -9.17782245	         16.05426340	         10.85968202	          9.22312480	
          1.37189360	        -15.15744693	          1.81744329	          0.89003554	         39.32724312	          3.48127735	        -19.82624636	         -9.67805576	         15.88400389	         10.60886841	          9.23898553	
          1.38148726	        -15.16706677	          1.83056948	          0.88896400	         39.39569815	          2.95299298	        -18.13321001	        -10.26858643	         15.68587848	         10.27022663	          9.26401913	
          1.39108092	        -15.17390698	          1.84389205	          0.88794522	         39.37088998	          2.47131442	        -16.53323837	        -10.95798281	         15.45978121	          9.83160288	          9.29846383	
          1.40067458	        -15.17671289	          1.85742519	          0.88698448	         39.26042023	          2.04085621	        -15.04338077	        -11.75523990	         15.20442833	          9.28214396	          9.34245816	
          1.41026824	        -15.17422147	          1.87118332	          0.88608284	         39.06932970	          1.66713595	        -13.67817454	        -12.67064289	         14.91780259	          8.61087129	          9.39629422	
          1.41986190	        -15.16502865	          1.88518002	          0.88523602	         38.80238962	          1.35606221	        -12.45747393	        -13.71511698	         14.59702335	          7.80734094	          9.46022437	
          1.42945557	        -15.14757670	          1.89942704	          0.88443285	         38.46496246	          1.11329256	        -11.41007485	        -14.89887102	         14.23829013	          6.86403963	          9.53439767	
